<svg width="600" height="240" viewBox="0 0 600 240" fill="none" xmlns="http://www.w3.org/2000/svg">
<path d="M17.3494 150.927C17.0516 153.309 15.8602 155.394 13.8747 157.082C10.102 160.259 4.54244 160.259 1.76262 156.983C0.372717 155.394 -0.222907 153.21 0.0749288 150.927L8.81143 88.8775C9.10929 86.5941 10.3006 84.5092 12.0876 82.8215C15.8602 79.446 21.5192 79.446 24.3982 82.7222C25.7881 84.41 26.3838 86.4948 26.0859 88.8775L17.3494 150.927Z" fill="#3C2CDA"/>
<path d="M64.5056 150.927C64.208 153.309 63.0163 155.394 61.0307 157.082C57.2583 160.259 51.6985 160.259 48.9186 156.983C47.5291 155.394 46.9335 153.21 47.2311 150.927L55.9677 88.8775C56.2657 86.5941 57.457 84.5092 59.2438 82.8215C63.0163 79.446 68.6754 79.446 71.5546 82.7222C72.9441 84.41 73.5398 86.4948 73.2422 88.8775L64.5056 150.927Z" fill="#3C2CDA"/>
<path d="M39.9845 111.213C42.3672 111.213 44.3529 112.106 45.7428 113.794C48.4234 117.07 47.6291 122.729 43.9557 125.906C42.0694 127.495 39.8852 128.388 37.5026 128.388H11.7894C9.50596 128.388 7.52039 127.594 6.03124 126.005C3.15214 122.729 3.94632 117.07 7.7189 113.695C9.60522 112.007 11.8886 111.113 14.172 111.113H39.9845V111.213Z" fill="#3C2CDA"/>
<path d="M123.678 158.961H83.3704C80.9879 158.961 79.0024 158.067 77.6124 156.479C76.2225 154.89 75.6268 152.706 75.9244 150.423L84.4623 89.4654C84.7604 87.182 85.9516 84.9979 87.7389 83.4094C89.6252 81.7217 91.809 80.8281 94.1919 80.8281H134.499C136.783 80.8281 138.669 81.7216 140.059 83.3101C141.449 84.8986 141.945 86.9834 141.647 89.2668C141.349 91.5502 140.158 93.6351 138.271 95.2235C136.484 96.7127 134.301 97.6062 132.116 97.6062H100.546L98.56 111.704H126.557C128.84 111.704 130.726 112.498 132.116 114.086C133.506 115.675 134.102 117.76 133.705 120.043C133.407 122.327 132.216 124.412 130.329 126C128.542 127.489 126.358 128.283 124.174 128.283H96.1775L94.1919 142.48H125.762C128.046 142.48 129.932 143.374 131.322 144.962C132.712 146.551 133.208 148.635 132.911 150.919C132.613 153.203 131.421 155.287 129.535 156.876C128.046 158.166 125.862 158.961 123.678 158.961Z" fill="#3C2CDA"/>
<path d="M199.823 159.457C197.043 159.457 194.759 158.166 193.469 155.883L178.478 133.049L157.232 156.081C154.552 158.861 151.871 159.457 150.084 159.457C147.9 159.457 146.013 158.563 144.624 156.975C143.234 155.386 142.737 153.401 143.035 151.117C143.333 149.132 144.127 147.345 145.517 145.856L170.436 119.745L153.162 93.9328C152.169 92.2451 151.871 90.5574 152.07 88.5718C152.368 86.1891 153.559 84.1042 155.346 82.5158C158.225 80.0338 162.395 79.3388 165.472 81.0266C166.663 81.6222 167.557 82.5158 168.153 83.5085L182.945 106.343L204.191 83.31C207.07 79.7359 213.623 79.041 216.7 82.5158C218.189 84.1042 218.686 86.1891 218.388 88.4725C218.09 90.2595 217.395 91.9473 216.104 93.3372L191.086 119.646L208.559 145.657C209.552 146.948 209.949 148.735 209.651 150.82C209.353 153.103 208.162 155.188 206.375 156.876C204.489 158.663 202.305 159.457 199.823 159.457Z" fill="#3C2CDA"/>
<path d="M278.652 159.459C276.964 159.459 275.376 158.963 274.085 158.069C272.795 157.076 271.901 155.885 271.405 154.296L267.732 140.993H238.941L231.594 154.197C230.601 155.885 229.31 157.175 227.821 158.069C223.949 160.352 219.382 159.757 217 156.977C215.709 155.388 215.114 153.304 215.511 150.921C215.709 149.829 216.106 148.637 216.801 147.347L250.953 86.7868C252.045 84.9004 253.435 83.4113 255.024 82.2199C256.91 80.83 259.094 80.2344 261.377 80.2344H262.37C264.753 80.2344 266.639 80.9293 268.128 82.2199C269.419 83.4113 270.412 84.9005 270.908 86.6875L288.084 147.248C288.48 148.538 288.58 149.729 288.382 150.822C288.084 153.105 286.892 155.19 285.204 156.878C283.417 158.665 281.134 159.459 278.652 159.459ZM248.173 124.612H263.165L258.201 106.543L248.173 124.612Z" fill="#3C2CDA"/>
<path d="M356.783 159.46C354.599 159.46 352.514 158.766 350.926 157.376C349.337 155.986 348.344 154.199 347.948 152.015L341.097 113.097L323.326 152.114C322.433 154.199 320.844 155.986 318.859 157.376C314.887 160.155 309.824 160.056 306.747 157.475C305.258 156.184 304.265 154.497 303.768 152.213L292.55 91.5538C292.351 90.3624 292.351 89.3697 292.451 88.5754C292.649 86.3913 293.741 84.2071 295.627 82.5194C298.904 79.6403 304.265 79.2432 307.243 82.023C308.434 83.2144 309.229 84.7036 309.626 86.4906L316.675 129.28L335.736 86.6891C336.53 84.8028 338.02 83.1151 339.807 81.8245C343.48 79.3425 348.146 79.4417 351.124 81.8245C352.614 83.0158 353.606 84.8028 353.904 86.6891L361.052 129.28L380.114 86.4906C380.908 84.6043 382.198 83.1151 383.787 81.9238C387.46 79.144 392.722 79.5411 395.204 82.4202C396.594 84.1079 397.09 86.1928 396.693 88.6747C396.594 89.2704 396.296 90.1638 395.899 91.2559L367.605 151.915C366.413 154.298 364.924 155.986 363.038 157.276C361.052 158.865 358.967 159.46 356.783 159.46Z" fill="#3C2CDA"/>
<path d="M446.035 159.459C444.348 159.459 442.759 158.963 441.469 158.069C440.178 157.076 439.284 155.885 438.788 154.296L435.115 140.993H406.324L398.977 154.197C397.984 155.885 396.694 157.175 395.205 158.069C391.333 160.352 386.766 159.757 384.383 156.977C383.092 155.388 382.497 153.304 382.894 150.921C383.092 149.829 383.49 148.637 384.185 147.347L418.336 86.7868C419.429 84.9004 420.819 83.4113 422.407 82.2199C424.294 80.83 426.477 80.2344 428.761 80.2344H429.754C432.137 80.2344 434.023 80.9293 435.512 82.2199C436.803 83.4113 437.795 84.9005 438.292 86.6875L455.466 147.248C455.864 148.538 455.965 149.729 455.766 150.822C455.466 153.105 454.274 155.19 452.587 156.878C450.702 158.665 448.419 159.459 446.035 159.459ZM415.458 124.612H430.449L425.485 106.543L415.458 124.612Z" fill="#3C2CDA"/>
<path d="M516.028 159.458C513.251 159.458 510.964 158.167 509.674 155.883L484.357 115.874L504.513 115.676L524.766 145.757C525.362 146.551 526.254 148.338 525.857 150.92C525.561 153.203 524.369 155.288 522.682 156.975C520.792 158.663 518.509 159.458 516.028 159.458Z" fill="#3C2CDA"/>
<path d="M469.861 159.457C467.481 159.457 465.494 158.563 464.103 156.975C462.717 155.386 462.12 153.203 462.518 150.919L471.154 89.4654C471.45 87.182 472.642 84.9979 474.43 83.4094C476.316 81.7217 478.501 80.8281 480.881 80.8281H504.313C514.34 80.8281 521.785 83.0123 526.452 87.3805C531.317 91.9474 533.3 97.9041 532.209 105.251C531.317 111.505 526.35 131.758 499.152 131.758H482.374L479.689 151.018C479.393 153.401 478.201 155.486 476.214 157.174C474.329 158.663 472.148 159.457 469.861 159.457ZM484.753 114.881H498.852C503.814 114.881 507.788 113.987 510.667 112.2C513.148 110.711 514.438 108.726 514.835 105.946C515.232 103.265 514.636 101.379 512.95 99.989C511.559 98.8969 508.384 97.6062 500.737 97.6062H487.138L484.753 114.881Z" fill="#3C2CDA"/>
<path d="M581.749 158.961H541.441C539.057 158.961 537.074 158.067 535.684 156.479C534.293 154.89 533.697 152.706 534.094 150.423L542.633 89.4654C542.929 87.182 544.121 84.9979 545.909 83.4094C547.795 81.7217 550.077 80.8281 552.462 80.8281H592.769C595.052 80.8281 596.937 81.7216 598.328 83.3101C599.719 84.8986 600.213 86.9834 599.918 89.2668C599.617 91.5502 598.43 93.6351 596.54 95.2235C594.756 96.7127 592.57 97.6062 590.385 97.6062H558.718L556.731 111.704H584.729C587.012 111.704 588.897 112.498 590.288 114.086C591.679 115.675 592.275 117.76 591.877 120.043C591.577 122.327 590.385 124.412 588.5 126C586.711 127.489 584.53 128.283 582.345 128.283H554.347L552.36 142.48H584.031C586.314 142.48 588.204 143.374 589.59 144.962C590.981 146.551 591.48 148.635 591.18 150.919C590.884 153.203 589.692 155.287 587.806 156.876C586.115 158.166 584.031 158.961 581.749 158.961Z" fill="#3C2CDA"/>
</svg>
